<?xml version="1.0" standalone="no"?>
<!DOCTYPE svg PUBLIC "-//W3C//DTD SVG 20010904//EN"
 "http://www.w3.org/TR/2001/REC-SVG-20010904/DTD/svg10.dtd">
<svg version="1.0" xmlns="http://www.w3.org/2000/svg"
 width="400.000000pt" height="400.000000pt" viewBox="0 0 400.000000 400.000000"
 preserveAspectRatio="xMidYMid meet">
<metadata>
Created by potrace 1.14, written by Peter Selinger 2001-2017
</metadata>
<g transform="translate(0.000000,400.000000) scale(0.100000,-0.100000)"
fill="#000000" stroke="none">
<path d="M1213 3182 l-33 -3 0 -1140 0 -1139 247 2 248 3 -1 445 c-1 400 -6
618 -18 690 -3 14 -7 54 -11 90 -3 36 -8 79 -10 95 -7 51 -24 208 -29 258 -2
26 -1 47 3 47 4 0 29 -55 55 -122 27 -68 54 -136 61 -153 7 -16 29 -73 50
-125 20 -52 68 -169 107 -260 71 -170 96 -228 193 -460 31 -74 60 -144 65
-155 6 -11 41 -94 79 -185 l69 -165 266 -3 266 -2 0 1140 0 1140 -47 1 c-55 1
-335 1 -403 0 l-46 -1 2 -492 c1 -271 4 -513 7 -538 3 -25 9 -76 12 -115 4
-38 13 -122 21 -185 7 -63 16 -144 19 -180 3 -36 8 -81 11 -100 9 -65 -14 -17
-106 220 -89 228 -117 299 -260 635 -37 88 -123 291 -190 450 -67 160 -126
294 -130 299 -8 8 -425 15 -497 8z"/>
</g>
</svg>
